<svg width="85" height="24" xmlns="http://www.w3.org/2000/svg">
 <!-- Created with Method Draw - http://github.com/duopixel/Method-Draw/ -->

 <g>
  <title>Layer 1</title>
  <style type="text/css">.st0{fill:#FFFFFF;}</style>
  <g id="svg_11">
   <g transform="matrix(0.235697, 0, 0, 0.235697, 0, 0)" id="svg_8">
    <rect id="svg_9" height="103.7" width="362.8" y="-0.000001" x="0"/>
    <path id="svg_10" d="m346.599945,74.399956c-0.699951,0.200073 -1.300049,0.300049 -1.900024,0.300049c-2.099976,0 -3.099976,-0.900024 -3.099976,-3.5l0,-19.699951c0,-10.400024 -8.300049,-15.400024 -18,-15.400024c-7.400024,0 -11.5,0.900024 -19.400024,4.099976l-1.799927,10.400024l10.399902,1.099976l1.5,-5.099976c2.100098,-1.099976 4.200073,-1.300049 6.900024,-1.300049c7.300049,0 7.400024,5.5 7.400024,10.200073l0,1.5c-2.300049,-0.300049 -4.900024,-0.400024 -7.400024,-0.400024c-10.400024,0 -21.099976,2.599976 -21.099976,13.799927c0,9.5 7.400024,13 14,13c7.300049,0 12,-4.399902 14.599976,-9.099976c0.599976,5.5 3.900024,9.099976 10,9.099976c2.800049,0 5.700073,-0.799927 8.200073,-2.099976l-0.300049,-6.900024zm-27.899902,-0.299927c-3.900146,0 -5.300049,-2.300049 -5.300049,-5.200073c0,-4.899902 4,-6.199951 8.699951,-6.199951c2.100098,0 4.400024,0.300049 6.5,0.599976c-0.399902,7.5 -5.300049,10.800049 -9.899902,10.800049zm-17.400146,-60.900026l-19.599854,69.199953l-12.800049,0l19.599976,-69.199953l12.799927,0zm-26.399902,0l-19.599991,69.199953l-12.800034,0l19.599976,-69.199953l12.800049,0zm-54.499985,23.800051l13.59996,0l0,16.299927l-13.59996,0l0,-16.299927zm0,29.099976l13.59996,0l0,16.299927l-13.59996,0l0,-16.299927zm-19.800049,-0.599976l10.300049,1l-2.800049,15.899902l-39.699951,0l-1.300049,-6.799927l25,-28.700073l-14.199951,0l-2,7l-9.400024,-1l1.599976,-15.899902l39.900024,0l1,6.799927l-25.199951,28.700073l14.699951,0l2.099976,-7zm-65,-29.400024c-16.299927,0 -24.399918,11 -24.399918,24.299927c0,14.5 9.699966,23 23.699966,23c14.5,0 25,-9.199951 25,-23.699951c-0.100098,-12.599976 -8,-23.599976 -24.300049,-23.599976zm-0.300049,37.299927c-7,0 -10.699951,-6 -10.699951,-13.899902c0,-8.600098 4.099976,-13.5 10.800049,-13.5c6.099976,0 11.099976,4.099976 11.099976,13.299927c-0.099976,8.700073 -4.5,14.099976 -11.200073,14.099976zm-35.799911,-0.899902l6,0l0,9.899902l-19,0l0,-25.599976c0,-7.900024 -2.599976,-10.900024 -7.700073,-10.900024c-6.199951,0 -8.799927,4.400024 -8.799927,10.800049l0,15.800049l6,0l0,9.899902l-19,0l0,-25.599976c0,-7.900024 -2.599976,-10.900024 -7.799927,-10.900024c-6.200073,0 -8.800049,4.400024 -8.800049,10.800049l0,15.800049l8.699951,0l0,9.899902l-27.599974,0l0,-9.899902l6,0l0,-25.700073l-6,0l0,-9.900024l18.999998,0l0,6.800049c2.700073,-4.800049 7.400024,-7.699951 13.799927,-7.699951c6.5,0 12.600098,3.099976 14.800049,9.799927c2.5,-6 7.600098,-9.799927 14.800049,-9.799927c8.199951,0 15.599976,4.899902 15.599976,15.699951l0,20.800049z" class="st0"/>
   </g>
  </g>
 </g>
</svg>