<svg id="Layer_1" data-name="Layer 1" xmlns="http://www.w3.org/2000/svg" viewBox="0 0 103.75 103.75"><defs><style>.cls-1{fill:#fff;}</style></defs><title>moz-symbol-rgb-interim</title><rect width="103.75" height="103.75"/><path class="cls-1" d="M457.9,310.93h6v9.86h-19V295.22c0-7.85-2.62-10.87-7.75-10.87-6.24,0-8.76,4.43-8.76,10.77v15.8h6v9.86h-19V295.22c0-7.85-2.62-10.87-7.75-10.87-6.24,0-8.76,4.43-8.76,10.77v15.8h8.66v9.86H379.9v-9.86h6V285.26h-6V275.4h19v6.84c2.72-4.83,7.45-7.75,13.79-7.75,6.54,0,12.58,3.12,14.79,9.76a15.21,15.21,0,0,1,14.79-9.76c8.15,0,15.6,4.93,15.6,15.7Z" transform="translate(-369.04 -245.77)"/></svg>